<svg width="22" height="36" viewBox="0 0 22 36" fill="none" xmlns="http://www.w3.org/2000/svg">
<g clip-path="url(#clip0_43_111)">
<path d="M5.75698 17.5581L5.91651 17.4242L5.93382 17.2166L5.93382 17.2166L5.93384 17.2164L5.93396 17.215L5.93449 17.2087L5.93675 17.1829C5.9388 17.1598 5.94194 17.1251 5.94624 17.0794C5.95486 16.9881 5.96813 16.8529 5.98663 16.6793C6.02362 16.3321 6.08148 15.8315 6.16472 15.2205C6.33132 13.9977 6.599 12.3369 7.00328 10.5813C7.40813 8.82333 7.94672 6.98471 8.65086 5.40003C9.27274 4.00049 10.0039 2.84492 10.8476 2.10509C10.9757 2.26838 11.1401 2.4869 11.3303 2.75958C11.807 3.44289 12.4452 4.46551 13.0803 5.81072C14.3502 8.50015 15.6086 12.4793 15.5417 17.6198L15.5374 17.9497L15.8384 18.0831L15.8385 18.0832L15.8387 18.0833L15.839 18.0834L15.8392 18.0835L15.8447 18.086L15.8709 18.0981C15.8948 18.1094 15.9315 18.1271 15.9792 18.151C16.0747 18.199 16.2139 18.272 16.3831 18.3701C16.7224 18.5666 17.1778 18.8608 17.6424 19.2503C18.398 19.8839 19.1412 20.7381 19.4869 21.8049L16.3387 20.7346L15.7986 20.551L15.6873 21.1104L15.0871 24.1275H6.56567L5.05758 21.1645L4.81572 20.6893L4.35703 20.9612L2.03811 22.3357L2.80713 20.0337L5.75698 17.5581Z" stroke="black"/>
<path d="M9.99119 2.43302H11.0215H11.0287H12.0545L11.6585 2.93932C14.6965 6.93826 16.3149 11.8158 16.2553 16.8185V17.7331L17.0454 18.2139C17.0455 18.2139 17.0456 18.2139 17.0456 18.214C18.4798 19.0822 19.5511 20.43 20.0624 22.0132L20.539 23.489L19.2902 22.5695C18.8909 22.2755 18.4732 22.0066 18.0394 21.7644L18.0385 21.7638L15.9146 20.5713L15.5332 22.9769C15.5331 22.9772 15.5331 22.9774 15.5331 22.9777C15.4876 23.2703 15.4266 23.5603 15.3504 23.8465L15.2516 24.218H14.8672H7.16151H6.79828L6.68599 23.8725C6.56574 23.5026 6.46904 23.1357 6.38108 22.7604L6.37962 22.7542L6.37966 22.7542L5.90139 20.5893L3.95372 21.6726C3.95357 21.6727 3.95342 21.6728 3.95327 21.6728C3.54698 21.9001 3.15476 22.1507 2.77864 22.4235L1.51892 23.3372L2.0107 21.8608C2.53042 20.3004 3.5764 18.964 4.97284 18.0723L9.99119 2.43302ZM9.99119 2.43302L10.3917 2.94144C7.37957 6.93133 5.74099 11.7702 5.72336 16.7503V16.7521V17.5923L4.97317 18.0721L9.99119 2.43302ZM10.8784 0.575855L10.9191 0.540187C10.9477 0.515998 10.9849 0.501327 11.0248 0.500084C11.0475 0.5008 11.0696 0.505878 11.0899 0.514853C11.1117 0.524476 11.1306 0.538233 11.1456 0.554782L11.1473 0.556608C15.2398 5.01687 17.4731 10.8306 17.4037 16.8379L17.4004 17.1225L17.6435 17.2706C19.326 18.2963 20.5716 19.8868 21.1514 21.7455C21.6236 23.2593 21.6285 24.8686 21.1783 26.3728C20.2733 24.8705 18.9839 23.6206 17.4315 22.7528L16.7988 22.399L16.6929 23.1162C16.5893 23.818 16.3984 24.5049 16.1245 25.1611L16.1179 25.177L16.1124 25.1934C16.0865 25.2698 16.0547 25.3167 16.0335 25.3402H6.14767C6.10834 25.3395 6.07114 25.3262 6.04162 25.3036C6.01183 25.2808 5.99183 25.2501 5.98298 25.2171L5.97494 25.1871L5.96324 25.1584C5.67607 24.4519 5.44454 23.7247 5.2707 22.9834L5.11878 22.3355L4.53878 22.6617C2.99921 23.5277 1.71777 24.7672 0.811736 26.255C0.401128 24.7564 0.425674 23.1665 0.894429 21.6691C1.47414 19.8172 2.69696 18.223 4.35123 17.1664L4.58107 17.0196L4.58208 16.7469C4.60416 10.7813 6.84331 5.02917 10.8784 0.575855Z" fill="#4EA8DE" stroke="black"/>
<path d="M10.5216 15.6055C10.2476 15.5452 9.98597 15.4356 9.75051 15.281C9.37487 15.0344 9.08298 14.6847 8.91043 14.2768C8.73792 13.8689 8.69203 13.4204 8.7782 12.9874C8.86438 12.5544 9.07905 12.155 9.39638 11.8402C9.7138 11.5253 10.1197 11.3091 10.5634 11.22C11.0072 11.1309 11.4677 11.1732 11.8867 11.3413C12.3056 11.5093 12.6633 11.7952 12.9157 12.1617L13.3275 11.8781L12.9157 12.1617C13.168 12.528 13.3039 12.9589 13.3074 13.3999L13.3073 13.3999L13.3075 13.4082C13.3145 13.6924 13.2645 13.9753 13.1602 14.2408C13.056 14.5064 12.8994 14.7496 12.6991 14.9564C12.4987 15.1633 12.2585 15.3296 11.992 15.4457C11.7254 15.5617 11.438 15.625 11.1461 15.6317L11.1127 15.6325L11.0896 15.6362L10.5216 15.5465V15.6055Z" fill="#4EA8DE" stroke="black"/>
<path d="M14.8802 28.0955L14.888 28.0958H14.8959H14.9561C15.0684 28.0979 15.1789 28.1218 15.2813 28.1659C15.3848 28.2105 15.4777 28.2746 15.5548 28.3542C15.6319 28.4338 15.6917 28.5273 15.7312 28.629C15.7706 28.7307 15.789 28.8389 15.7855 28.9473L15.7852 28.9554V28.9636V33.067C15.7852 33.2946 15.6935 33.5145 15.5275 33.6779C15.3613 33.8415 15.1343 33.9348 14.8959 33.9348C14.6576 33.9348 14.4305 33.8415 14.2643 33.6779C14.0984 33.5145 14.0066 33.2946 14.0066 33.067V28.91C14.008 28.802 14.0312 28.6951 14.0749 28.5955C14.119 28.4951 14.1833 28.4039 14.2643 28.3274C14.3454 28.2509 14.4415 28.1907 14.5474 28.1507C14.6533 28.1108 14.7665 28.0919 14.8802 28.0955Z" fill="#5E60CE" stroke="black"/>
<path d="M7.13554 28.0951L7.14853 28.0958H7.16154H7.17879C7.29103 28.0979 7.40156 28.1218 7.50399 28.1659C7.60743 28.2105 7.70031 28.2746 7.77743 28.3542C7.85454 28.4338 7.91437 28.5273 7.95383 28.629C7.99328 28.7307 8.01169 28.8389 8.00816 28.9473L8.00789 28.9554V28.9636V33.067C8.00789 33.2946 7.91613 33.5145 7.75019 33.6779C7.58399 33.8415 7.35693 33.9348 7.11857 33.9348C6.88021 33.9348 6.65316 33.8415 6.48695 33.6779C6.32102 33.5145 6.22925 33.2946 6.22925 33.067V28.9128C6.23204 28.8028 6.25696 28.6942 6.30282 28.5933C6.34929 28.491 6.41644 28.3984 6.50067 28.3213C6.58492 28.2442 6.68451 28.1841 6.7937 28.1451C6.90289 28.1061 7.01918 28.089 7.13554 28.0951Z" fill="#5E60CE" stroke="black"/>
<path d="M11.8109 28.9825L11.8106 28.9907V28.9988V34.6392C11.8106 34.8669 11.7189 35.0868 11.5529 35.2501C11.3867 35.4137 11.1597 35.507 10.9213 35.507C10.6829 35.507 10.4559 35.4137 10.2897 35.2501C10.1238 35.0868 10.032 34.8669 10.032 34.6392V28.9131C10.0349 28.8055 10.0589 28.6993 10.1031 28.6002C10.1479 28.4997 10.2126 28.4084 10.2939 28.3317C10.3752 28.2549 10.4715 28.1943 10.5774 28.1537C10.6494 28.1261 10.7248 28.1081 10.8015 28.1001L10.8544 28.1291L10.9782 28.131C11.0915 28.1327 11.2033 28.1566 11.3067 28.2012C11.4102 28.2457 11.503 28.3099 11.5802 28.3895C11.6573 28.4691 11.7171 28.5626 11.7566 28.6643C11.796 28.766 11.8144 28.8742 11.8109 28.9825Z" fill="#5E60CE" stroke="black"/>
</g>
<defs>
<clipPath id="clip0_43_111">
<rect width="22" height="36" fill="white"/>
</clipPath>
</defs>
</svg>
